<svg width="17" height="14" viewBox="0 0 17 14" fill="none" xmlns="http://www.w3.org/2000/svg">
<path d="M16.98 1.54C16.38 1.8 15.76 1.98 15.1 2.06C15.78 1.66 16.3 1.02 16.54 0.24C15.9 0.62 15.2 0.88 14.46 1.04C13.86 0.4 13 0 12.06 0C10.24 0 8.78 1.48 8.78 3.28C8.78 3.54 8.8 3.78 8.86 4.02C6.14 3.9 3.74 2.58 2.12 0.6C0.959996 2.68 2.26 4.4 3.12 4.98C2.6 4.98 2.08 4.82 1.64 4.58C1.64 6.2 2.78 7.54 4.26 7.84C3.94 7.94 3.22 8 2.78 7.9C3.2 9.2 4.42 10.16 5.84 10.18C4.72 11.06 3.08 11.76 0.979996 11.54C2.44 12.48 4.16 13.02 6.02 13.02C12.06 13.02 15.34 8.02 15.34 3.7C15.34 3.56 15.34 3.42 15.32 3.28C16 2.78 16.56 2.2 16.98 1.54Z" fill="#333333"/>
</svg>